<svg width="150" height="150" viewBox="0 0 150 150" fill="none" xmlns="http://www.w3.org/2000/svg">
<path d="M0 13C0 5.82029 5.8203 0 13 0H137C144.18 0 150 5.8203 150 13V137C150 144.18 144.18 150 137 150H13C5.82029 150 0 144.18 0 137V13Z" fill="white"/>
<path fill-rule="evenodd" clip-rule="evenodd" d="M80 131H82.6339C87.7715 131 94.8263 129.015 102.314 125.463C108.437 122.558 111.287 120.473 117.083 114.654C128.247 103.447 133.568 91.6267 133.854 77.3982L134 70.1111L107.669 69.6196V80.3333H122.798L122.247 83.2222C119.358 98.3573 106.956 113.059 93.6116 117.168L91.6033 117.787V75.0596C91.6033 46.3787 91.905 32.3333 92.5218 32.3333C94.5702 32.3333 103.916 37.7102 107.805 41.1271C110.088 43.1333 113.416 46.9644 115.2 49.6409L118.443 54.5058L128.124 49.7769L126.158 46.1662C125.077 44.1804 120.977 39.3111 117.047 35.3458C111.258 29.504 108.461 27.4524 102.314 24.5369C94.8263 20.9849 87.7715 19 82.6339 19H80V131Z" fill="#041424"/>
<path fill-rule="evenodd" clip-rule="evenodd" d="M57.6266 21.0809C47.65 24.0427 41.9164 27.5147 33.9414 35.424C26.0422 43.2578 22.9939 48.0507 19.5124 58.1111C16.2983 67.3982 16.1521 81.272 19.1656 91C25.156 110.336 40.0575 124.488 59.8377 129.625C62.7504 130.381 66.4539 131 68.0668 131H71V98.1111H59.4097V107.889C59.4097 113.996 59.0656 117.667 58.4923 117.667C55.6143 117.667 45.8384 111.434 40.9919 106.508C32.2412 97.616 28.2488 87.744 28.2488 75C28.2488 62.2853 32.3785 52.1707 41.1318 43.4444C45.907 38.6844 55.7891 32.3333 58.4201 32.3333C59.0852 32.3333 59.4097 35.5387 59.4097 42.1111V51.8889H71V19L67.6566 19.048C65.8182 19.0738 61.3043 19.9884 57.6266 21.0809Z" fill="#048494"/>
</svg>
